<mxfile host="app.diagrams.net" agent="Mozilla/5.0 (Windows NT 10.0; Win64; x64) AppleWebKit/537.36 (KHTML, like Gecko) Chrome/137.0.0.0 Safari/537.36" version="27.1.6">
  <diagram name="Page-1" id="VYJkg8Rw3rugyr6Lwy0z">
    <mxGraphModel dx="1042" dy="570" grid="1" gridSize="10" guides="1" tooltips="1" connect="1" arrows="1" fold="1" page="1" pageScale="1" pageWidth="850" pageHeight="1100" math="0" shadow="0">
      <root>
        <mxCell id="0" />
        <mxCell id="1" parent="0" />
        <mxCell id="j1hB70bCOGldToOQPZqW-1" value="" style="rounded=0;whiteSpace=wrap;html=1;fillColor=none;" vertex="1" parent="1">
          <mxGeometry x="190" y="140" width="620" height="340" as="geometry" />
        </mxCell>
        <mxCell id="j1hB70bCOGldToOQPZqW-2" value="Administracija salona" style="rounded=0;whiteSpace=wrap;html=1;fillColor=#dae8fc;strokeColor=#6c8ebf;" vertex="1" parent="1">
          <mxGeometry x="435" y="140" width="130" height="30" as="geometry" />
        </mxCell>
        <mxCell id="j1hB70bCOGldToOQPZqW-3" value="" style="rounded=0;whiteSpace=wrap;html=1;fillColor=none;" vertex="1" parent="1">
          <mxGeometry x="20" y="110" width="150" height="160" as="geometry" />
        </mxCell>
        <mxCell id="j1hB70bCOGldToOQPZqW-4" value="Online sučelje za klijente" style="rounded=0;whiteSpace=wrap;html=1;fillColor=#f8cecc;strokeColor=#b85450;" vertex="1" parent="1">
          <mxGeometry x="35" y="110" width="120" height="40" as="geometry" />
        </mxCell>
        <mxCell id="j1hB70bCOGldToOQPZqW-5" value="&amp;lt;&amp;gt;&lt;div&gt;Online rezervacija&lt;/div&gt;" style="rounded=0;whiteSpace=wrap;html=1;fillColor=#fad7ac;strokeColor=#b46504;" vertex="1" parent="1">
          <mxGeometry x="30" y="170" width="130" height="80" as="geometry" />
        </mxCell>
        <mxCell id="j1hB70bCOGldToOQPZqW-6" value="&amp;lt;&amp;gt;&lt;div&gt;Izdavanje računa&lt;/div&gt;" style="rounded=0;whiteSpace=wrap;html=1;fillColor=#d5e8d4;strokeColor=#82b366;" vertex="1" parent="1">
          <mxGeometry x="630" y="160" width="120" height="60" as="geometry" />
        </mxCell>
        <mxCell id="j1hB70bCOGldToOQPZqW-7" value="&amp;lt;&amp;gt;&amp;nbsp;&lt;div&gt;Upravljanje terminima&lt;/div&gt;" style="rounded=0;whiteSpace=wrap;html=1;fillColor=#d5e8d4;strokeColor=#82b366;" vertex="1" parent="1">
          <mxGeometry x="440" y="280" width="120" height="60" as="geometry" />
        </mxCell>
        <mxCell id="j1hB70bCOGldToOQPZqW-8" value="&amp;lt;&amp;gt;&lt;div&gt;Upravljanje klijentima&lt;/div&gt;" style="rounded=0;whiteSpace=wrap;html=1;fillColor=#d5e8d4;strokeColor=#82b366;" vertex="1" parent="1">
          <mxGeometry x="230" y="390" width="120" height="60" as="geometry" />
        </mxCell>
        <mxCell id="j1hB70bCOGldToOQPZqW-9" value="&amp;lt;&amp;gt;&lt;div&gt;Upravljanje uslugama&lt;/div&gt;" style="rounded=0;whiteSpace=wrap;html=1;fillColor=#d5e8d4;strokeColor=#82b366;" vertex="1" parent="1">
          <mxGeometry x="365" y="390" width="120" height="60" as="geometry" />
        </mxCell>
        <mxCell id="j1hB70bCOGldToOQPZqW-10" value="&amp;lt;&amp;gt;&lt;div&gt;Upravljanje zaposlenicima&lt;/div&gt;" style="rounded=0;whiteSpace=wrap;html=1;fillColor=#d5e8d4;strokeColor=#82b366;" vertex="1" parent="1">
          <mxGeometry x="500" y="390" width="150" height="60" as="geometry" />
        </mxCell>
        <mxCell id="j1hB70bCOGldToOQPZqW-11" value="&amp;lt;&amp;gt;&lt;div&gt;Pregled izvještaja&lt;/div&gt;" style="rounded=0;whiteSpace=wrap;html=1;fillColor=#d5e8d4;strokeColor=#82b366;" vertex="1" parent="1">
          <mxGeometry x="660" y="390" width="120" height="60" as="geometry" />
        </mxCell>
        <mxCell id="j1hB70bCOGldToOQPZqW-12" value="" style="endArrow=classic;html=1;rounded=0;entryX=0;entryY=0.5;entryDx=0;entryDy=0;exitX=0.5;exitY=1;exitDx=0;exitDy=0;" edge="1" parent="1" source="j1hB70bCOGldToOQPZqW-3" target="j1hB70bCOGldToOQPZqW-7">
          <mxGeometry width="50" height="50" relative="1" as="geometry">
            <mxPoint x="400" y="320" as="sourcePoint" />
            <mxPoint x="450" y="270" as="targetPoint" />
            <Array as="points">
              <mxPoint x="95" y="310" />
            </Array>
          </mxGeometry>
        </mxCell>
        <mxCell id="j1hB70bCOGldToOQPZqW-13" value="Podaci za rezervaciju" style="edgeLabel;html=1;align=center;verticalAlign=middle;resizable=0;points=[];" vertex="1" connectable="0" parent="j1hB70bCOGldToOQPZqW-12">
          <mxGeometry x="0.1294" y="-1" relative="1" as="geometry">
            <mxPoint as="offset" />
          </mxGeometry>
        </mxCell>
        <mxCell id="j1hB70bCOGldToOQPZqW-14" value="" style="endArrow=classic;html=1;rounded=0;exitX=0.5;exitY=1;exitDx=0;exitDy=0;entryX=1;entryY=0.5;entryDx=0;entryDy=0;" edge="1" parent="1" source="j1hB70bCOGldToOQPZqW-6" target="j1hB70bCOGldToOQPZqW-7">
          <mxGeometry width="50" height="50" relative="1" as="geometry">
            <mxPoint x="400" y="320" as="sourcePoint" />
            <mxPoint x="450" y="270" as="targetPoint" />
            <Array as="points">
              <mxPoint x="690" y="310" />
            </Array>
          </mxGeometry>
        </mxCell>
        <mxCell id="j1hB70bCOGldToOQPZqW-15" value="Na temelju" style="edgeLabel;html=1;align=center;verticalAlign=middle;resizable=0;points=[];" vertex="1" connectable="0" parent="j1hB70bCOGldToOQPZqW-14">
          <mxGeometry x="-0.6055" y="-2" relative="1" as="geometry">
            <mxPoint as="offset" />
          </mxGeometry>
        </mxCell>
        <mxCell id="j1hB70bCOGldToOQPZqW-16" value="" style="endArrow=classic;html=1;rounded=0;exitX=0.417;exitY=1;exitDx=0;exitDy=0;exitPerimeter=0;entryX=0.5;entryY=0;entryDx=0;entryDy=0;" edge="1" parent="1" source="j1hB70bCOGldToOQPZqW-7" target="j1hB70bCOGldToOQPZqW-9">
          <mxGeometry width="50" height="50" relative="1" as="geometry">
            <mxPoint x="400" y="320" as="sourcePoint" />
            <mxPoint x="450" y="270" as="targetPoint" />
          </mxGeometry>
        </mxCell>
        <mxCell id="j1hB70bCOGldToOQPZqW-19" value="Koristi" style="edgeLabel;html=1;align=center;verticalAlign=middle;resizable=0;points=[];" vertex="1" connectable="0" parent="j1hB70bCOGldToOQPZqW-16">
          <mxGeometry x="-0.0794" relative="1" as="geometry">
            <mxPoint as="offset" />
          </mxGeometry>
        </mxCell>
        <mxCell id="j1hB70bCOGldToOQPZqW-17" value="" style="endArrow=classic;html=1;rounded=0;entryX=0.5;entryY=0;entryDx=0;entryDy=0;exitX=0;exitY=1;exitDx=0;exitDy=0;" edge="1" parent="1" source="j1hB70bCOGldToOQPZqW-7" target="j1hB70bCOGldToOQPZqW-8">
          <mxGeometry width="50" height="50" relative="1" as="geometry">
            <mxPoint x="400" y="320" as="sourcePoint" />
            <mxPoint x="450" y="270" as="targetPoint" />
            <Array as="points">
              <mxPoint x="290" y="340" />
            </Array>
          </mxGeometry>
        </mxCell>
        <mxCell id="j1hB70bCOGldToOQPZqW-18" value="Koristi" style="edgeLabel;html=1;align=center;verticalAlign=middle;resizable=0;points=[];" vertex="1" connectable="0" parent="j1hB70bCOGldToOQPZqW-17">
          <mxGeometry x="0.684" relative="1" as="geometry">
            <mxPoint as="offset" />
          </mxGeometry>
        </mxCell>
        <mxCell id="j1hB70bCOGldToOQPZqW-20" value="" style="endArrow=classic;html=1;rounded=0;entryX=0.75;entryY=0;entryDx=0;entryDy=0;exitX=1;exitY=1;exitDx=0;exitDy=0;" edge="1" parent="1" source="j1hB70bCOGldToOQPZqW-7" target="j1hB70bCOGldToOQPZqW-10">
          <mxGeometry width="50" height="50" relative="1" as="geometry">
            <mxPoint x="400" y="320" as="sourcePoint" />
            <mxPoint x="450" y="270" as="targetPoint" />
            <Array as="points">
              <mxPoint x="613" y="340" />
            </Array>
          </mxGeometry>
        </mxCell>
        <mxCell id="j1hB70bCOGldToOQPZqW-21" value="Koristi" style="edgeLabel;html=1;align=center;verticalAlign=middle;resizable=0;points=[];" vertex="1" connectable="0" parent="j1hB70bCOGldToOQPZqW-20">
          <mxGeometry x="0.4257" y="-2" relative="1" as="geometry">
            <mxPoint as="offset" />
          </mxGeometry>
        </mxCell>
      </root>
    </mxGraphModel>
  </diagram>
</mxfile>
